Cover: 
http://imgh.us/1G9hQMIe.jpeg

Info:

Format : AVI
Format/Info : Audio Video Interleave
Format profile : OpenDML
Format settings : rec
File size : 1.28 GiB
Duration : 1h 24mn
Overall bit rate : 2 175 Kbps
Writing application : AVI-Mux GUI 1.17.8.3, Feb 16 201019:42:50

Video
ID : 0
Format : MPEG-4 Visual
Codec ID : XVID
Codec ID/Hint : XviD
Duration : 1h 24mn
Source duration : 41mn 46s
Bit rate : 969 Kbps
Width : 720 pixels
Height : 304 pixels
Display aspect ratio : 2.35:1
Frame rate : 23.976 fps
Color space : YUV
Chroma subsampling : 4:2:0
Compression mode : Lossy
Bits/(Pixel*Frame) : 0.185
Stream size : 586 MiB (45%)

Audio
ID : 1
Format : AC-3
Format/Info : Audio Coding 3
Codec ID : 2000
Duration : 1h 24mn
Source duration : 41mn 46s
Bit rate mode : Constant
Bit rate : 224 Kbps
Channel(s) : 6 channels
Sampling rate : 48.0 KHz
Compression mode : Lossy
Stream size : 66.9 MiB (5%)
Alignment : Aligned on interleaves
Interleave, duration : 64 ms (1.53 video frames)
Interleave, preload duration : 192 ms


SCREENS:
 
http://imgh.us/ELL030hF.jpeg 
http://imgh.us/I2xm0BOG.jpeg